<svg width="677.007470703125px" height="196.417578125px" xmlns="http://www.w3.org/2000/svg" viewBox="-88.50373535156251 -23.208789062500003 677.007470703125 196.417578125" style="background: rgba(0, 0, 0, 0);" preserveAspectRatio="xMidYMid"><defs><linearGradient id="editing-gradient-gradient" x1="0" x2="1" y1="0.5" y2="0.5" gradientUnits="objectBoundingBox"><stop offset="0" stop-color="#fdb920"></stop><stop offset="1" stop-color="#eeff00"></stop></linearGradient></defs><g><g transform="translate(6.24000358581543, 129.97999954223633)"><path d="M21.87-61.53L21.87-61.53L21.87-61.53Q17.94-61.53 15.09-62.38L15.09-62.38L15.09-62.38Q12.24-63.23 10.43-64.75L10.43-64.75L10.43-64.75Q8.62-66.26 7.77-68.26L7.77-68.26L7.77-68.26Q6.92-70.25 6.92-72.60L6.92-72.60L6.92-72.60Q6.92-74.88 7.77-76.91L7.77-76.91L7.77-76.91Q8.62-78.93 10.43-80.45L10.43-80.45L10.43-80.45Q12.24-81.96 15.09-82.81L15.09-82.81L15.09-82.81Q17.94-83.67 21.87-83.67L21.87-83.67L21.87-83.67Q25.87-83.67 28.69-82.81L28.69-82.81L28.69-82.81Q31.51-81.96 33.34-80.45L33.34-80.45L33.34-80.45Q35.18-78.93 36.03-76.91L36.03-76.91L36.03-76.91Q36.88-74.88 36.88-72.60L36.88-72.60L36.88-72.60Q36.88-70.25 36.03-68.26L36.03-68.26L36.03-68.26Q35.18-66.26 33.34-64.75L33.34-64.75L33.34-64.75Q31.51-63.23 28.69-62.38L28.69-62.38L28.69-62.38Q25.87-61.53 21.87-61.53ZM7.45 0L7.45-52.74L36.35-52.74L36.35 0L7.45 0ZM51.25 0L51.25-52.74L76.75-52.74L79.30-45.08L79.30-45.08Q84.94-49.39 90.77-51.57L90.77-51.57L90.77-51.57Q96.60-53.75 103.04-53.75L103.04-53.75L103.04-53.75Q107.88-53.75 111.82-51.63L111.82-51.63L111.82-51.63Q115.76-49.50 117.99-44.87L117.99-44.87L117.99-44.87Q120.44-46.62 123.26-48.22L123.26-48.22L123.26-48.22Q126.08-49.82 129.20-51.07L129.20-51.07L129.20-51.07Q132.31-52.32 135.66-53.04L135.66-53.04L135.66-53.04Q139.02-53.75 142.64-53.75L142.64-53.75L142.64-53.75Q146.31-53.75 149.50-52.53L149.50-52.53L149.50-52.53Q152.70-51.31 155.04-48.75L155.04-48.75L155.04-48.75Q157.38-46.20 158.71-42.18L158.71-42.18L158.71-42.18Q160.04-38.16 160.04-32.57L160.04-32.57L160.04 0L131.14 0L131.14-34.38L131.14-34.38Q131.14-37.15 129.89-38.43L129.89-38.43L129.89-38.43Q128.64-39.70 126.30-39.70L126.30-39.70L126.30-39.70Q125.07-39.70 123.53-39.15L123.53-39.15L123.53-39.15Q121.99-38.59 120.39-37.52L120.39-37.52L120.39 0L91.49 0L91.49-34.38L91.49-34.38Q91.49-37.15 90.27-38.43L90.27-38.43L90.27-38.43Q89.04-39.70 86.70-39.70L86.70-39.70L86.70-39.70Q85.16-39.70 83.29-39.07L83.29-39.07L83.29-39.07Q81.43-38.43 80.15-37.04L80.15-37.04L80.15 0L51.25 0ZM170.95-16.61L170.95-16.61L170.95-16.61Q170.95-20.44 172.65-23.74L172.65-23.74L172.65-23.74Q174.36-27.04 177.55-29.49L177.55-29.49L177.55-29.49Q180.74-31.93 185.27-33.34L185.27-33.34L185.27-33.34Q189.79-34.75 195.38-34.75L195.38-34.75L195.38-34.75Q200.97-34.75 205.84-33.45L205.84-33.45L205.84-33.45Q210.71-32.15 214.01-30.12L214.01-30.12L214.01-30.55L214.01-30.55Q214.01-34.28 213.18-36.88L213.18-36.88L213.18-36.88Q212.36-39.49 210.66-41.14L210.66-41.14L210.66-41.14Q208.95-42.79 206.32-43.54L206.32-43.54L206.32-43.54Q203.68-44.28 200.12-44.28L200.12-44.28L200.12-44.28Q196.87-44.28 193.41-43.72L193.41-43.72L193.41-43.72Q189.95-43.16 187.02-42.10L187.02-42.10L183.14-49.28L183.14-49.28Q188.94-51.68 195.14-52.72L195.14-52.72L195.14-52.72Q201.34-53.75 207.94-53.75L207.94-53.75L207.94-53.75Q216.40-53.75 222.92-52.13L222.92-52.13L222.92-52.13Q229.44-50.51 233.89-47.29L233.89-47.29L233.89-47.29Q238.33-44.07 240.62-39.20L240.62-39.20L240.62-39.20Q242.91-34.33 242.91-27.78L242.91-27.78L242.91 0L215.92 0L214.11-5.11L214.11-5.11Q212.52-3.89 210.34-2.77L210.34-2.77L210.34-2.77Q208.15-1.65 205.55-0.80L205.55-0.80L205.55-0.80Q202.94 0.05 200.01 0.53L200.01 0.53L200.01 0.53Q197.08 1.01 193.89 1.01L193.89 1.01L193.89 1.01Q188.67 1.01 184.44-0.35L184.44-0.35L184.44-0.35Q180.21-1.70 177.23-4.04L177.23-4.04L177.23-4.04Q174.25-6.39 172.60-9.61L172.60-9.61L172.60-9.61Q170.95-12.83 170.95-16.61ZM200.76-17.72L200.76-17.72L200.76-17.72Q200.76-14.85 202.62-13.07L202.62-13.07L202.62-13.07Q204.48-11.28 207.62-11.28L207.62-11.28L207.62-11.28Q209.32-11.28 210.97-11.84L210.97-11.84L210.97-11.84Q212.62-12.40 214.01-13.52L214.01-13.52L214.01-22.51L214.01-22.51Q211.35-24.11 208.15-24.11L208.15-24.11L208.15-24.11Q204.53-24.11 202.65-22.33L202.65-22.33L202.65-22.33Q200.76-20.54 200.76-17.72ZM256.32-4.74L256.32-4.74L256.32-4.74Q256.32-8.78 258.34-12.56L258.34-12.56L258.34-12.56Q260.37-16.34 263.98-19.37L263.98-19.37L263.98-19.37Q258.98-22.09 256.40-25.89L256.40-25.89L256.40-25.89Q253.82-29.70 253.82-34.49L253.82-34.49L253.82-34.49Q253.82-39.01 256.19-42.60L256.19-42.60L256.19-42.60Q258.56-46.20 263.03-48.67L263.03-48.67L263.03-48.67Q267.50-51.15 273.99-52.45L273.99-52.45L273.99-52.45Q280.48-53.75 288.73-53.75L288.73-53.75L288.73-53.75Q291.55-53.75 294.21-53.60L294.21-53.60L294.21-60.46L294.21-60.46Q294.21-64.13 295.20-67.22L295.20-67.22L295.20-67.22Q296.18-70.31 298.15-72.54L298.15-72.54L298.15-72.54Q300.12-74.78 303.13-76.03L303.13-76.03L303.13-76.03Q306.14-77.28 310.18-77.28L310.18-77.28L310.18-77.28Q313.91-77.28 316.86-76.24L316.86-76.24L316.86-76.24Q319.81-75.20 321.86-73.42L321.86-73.42L321.86-73.42Q323.91-71.64 324.98-69.24L324.98-69.24L324.98-69.24Q326.04-66.85 326.04-64.19L326.04-64.19L326.04-64.19Q326.04-61.58 325.11-59.45L325.11-59.45L325.11-59.45Q324.18-57.32 322.69-55.78L322.69-55.78L322.69-55.78Q321.20-54.23 319.42-53.38L319.42-53.38L319.42-53.38Q317.63-52.53 315.88-52.53L315.88-52.53L303.42-69.30L303.37-69.24L303.26-52.48L303.26-52.48Q313.11-50.56 318.38-45.96L318.38-45.96L318.38-45.96Q323.65-41.35 323.65-34.49L323.65-34.49L323.65-34.49Q323.65-29.96 321.28-26.27L321.28-26.27L321.28-26.27Q318.91-22.57 314.44-19.93L314.44-19.93L314.44-19.93Q309.97-17.30 303.48-15.86L303.48-15.86L303.48-15.86Q296.98-14.42 288.73-14.42L288.73-14.42L288.73-14.42Q282.93-14.42 278.01-15.12L278.01-15.12L278.01-15.12Q273.09-15.81 269.09-17.19L269.09-17.19L269.09-17.19Q268.67-16.18 268.67-14.85L268.67-14.85L268.67-14.85Q268.67-13.47 269.39-12.37L269.39-12.37L269.39-12.37Q270.10-11.28 272.26-10.54L272.26-10.54L272.26-10.54Q274.42-9.79 278.33-9.42L278.33-9.42L278.33-9.42Q282.24-9.05 288.57-9.05L288.57-9.05L302.41-9.05L302.41-9.05Q308.69-9.05 313.19-7.80L313.19-7.80L313.19-7.80Q317.69-6.55 320.59-4.36L320.59-4.36L320.59-4.36Q323.49-2.18 324.84 0.72L324.84 0.72L324.84 0.72Q326.20 3.62 326.20 6.87L326.20 6.87L326.20 6.87Q326.20 11.12 323.97 14.69L323.97 14.69L323.97 14.69Q321.73 18.26 317.18 20.84L317.18 20.84L317.18 20.84Q312.63 23.42 305.71 24.85L305.71 24.85L305.71 24.85Q298.79 26.29 289.42 26.29L289.42 26.29L289.42 26.29Q284.10 26.29 279.13 25.84L279.13 25.84L279.13 25.84Q274.15 25.39 269.79 24.56L269.79 24.56L269.79 24.56Q265.42 23.74 261.75 22.59L261.75 22.59L261.75 22.59Q258.08 21.45 255.31 20.12L255.31 20.12L259.62 12.08L259.62 12.08Q262.97 13.63 266.33 14.66L266.33 14.66L266.33 14.66Q269.68 15.70 273.14 16.34L273.14 16.34L273.14 16.34Q276.60 16.98 280.24 17.24L280.24 17.24L280.24 17.24Q283.89 17.51 287.83 17.51L287.83 17.51L287.83 17.51Q292.30 17.51 295.04 17.14L295.04 17.14L295.04 17.14Q297.78 16.77 299.24 16.18L299.24 16.18L299.24 16.18Q300.71 15.59 301.21 14.82L301.21 14.82L301.21 14.82Q301.72 14.05 301.72 13.25L301.72 13.25L301.72 13.25Q301.72 11.87 300.20 10.99L300.20 10.99L300.20 10.99Q298.69 10.11 295.39 10.06L295.39 10.06L278.73 9.90L278.73 9.90Q273.03 9.85 268.83 8.76L268.83 8.76L268.83 8.76Q264.62 7.66 261.83 5.72L261.83 5.72L261.83 5.72Q259.03 3.78 257.68 1.12L257.68 1.12L257.68 1.12Q256.32-1.54 256.32-4.74ZM288.73-24.11L288.73-24.11L288.73-24.11Q289.96-24.11 290.92-24.59L290.92-24.59L290.92-24.59Q291.87-25.07 292.54-26.24L292.54-26.24L292.54-26.24Q293.20-27.41 293.55-29.41L293.55-29.41L293.55-29.41Q293.90-31.40 293.90-34.44L293.90-34.44L293.90-34.44Q293.90-37.26 293.58-39.12L293.58-39.12L293.58-39.12Q293.26-40.98 292.62-42.07L292.62-42.07L292.62-42.07Q291.98-43.16 290.99-43.59L290.99-43.59L290.99-43.59Q290.01-44.02 288.73-44.02L288.73-44.02L288.73-44.02Q287.46-44.02 286.47-43.59L286.47-43.59L286.47-43.59Q285.49-43.16 284.85-42.07L284.85-42.07L284.85-42.07Q284.21-40.98 283.89-39.12L283.89-39.12L283.89-39.12Q283.57-37.26 283.57-34.38L283.57-34.38L283.57-34.38Q283.57-31.40 283.92-29.41L283.92-29.41L283.92-29.41Q284.26-27.41 284.93-26.24L284.93-26.24L284.93-26.24Q285.59-25.07 286.55-24.59L286.55-24.59L286.55-24.59Q287.51-24.11 288.73-24.11ZM332.85-26.66L332.85-26.66L332.85-26.66Q332.85-31.24 334.29-35.02L334.29-35.02L334.29-35.02Q335.73-38.80 338.26-41.81L338.26-41.81L338.26-41.81Q340.78-44.81 344.24-47.05L344.24-47.05L344.24-47.05Q347.70-49.28 351.75-50.77L351.75-50.77L351.75-50.77Q355.79-52.26 360.21-53.01L360.21-53.01L360.21-53.01Q364.63-53.75 369.15-53.75L369.15-53.75L369.15-53.75Q375.11-53.75 379.98-52.56L379.98-52.56L379.98-52.56Q384.85-51.36 388.66-49.28L388.66-49.28L388.66-49.28Q392.46-47.21 395.26-44.44L395.26-44.44L395.26-44.44Q398.05-41.67 399.89-38.56L399.89-38.56L399.89-38.56Q401.72-35.45 402.60-32.15L402.60-32.15L402.60-32.15Q403.48-28.85 403.48-25.71L403.48-25.71L363.24-20.86L363.24-20.86Q364.42-14.96 367.93-11.71L367.93-11.71L367.93-11.71Q371.44-8.46 377.77-8.46L377.77-8.46L377.77-8.46Q381.23-8.46 384.24-9.31L384.24-9.31L384.24-9.31Q387.25-10.17 388.95-11.39L388.95-11.39L393.21-3.94L393.21-3.94Q391.24-2.93 388.92-2.02L388.92-2.02L388.92-2.02Q386.61-1.12 383.82-0.45L383.82-0.45L383.82-0.45Q381.02 0.21 377.64 0.61L377.64 0.61L377.64 0.61Q374.26 1.01 370.22 1.01L370.22 1.01L370.22 1.01Q360.53 1.01 353.50-1.25L353.50-1.25L353.50-1.25Q346.48-3.51 341.88-7.32L341.88-7.32L341.88-7.32Q337.27-11.12 335.06-16.13L335.06-16.13L335.06-16.13Q332.85-21.13 332.85-26.66ZM362.61-29.27L377.67-31.14L377.67-31.14Q377.67-38.05 375.94-41.19L375.94-41.19L375.94-41.19Q374.21-44.33 370.80-44.33L370.80-44.33L370.80-44.33Q369.05-44.33 367.56-43.48L367.56-43.48L367.56-43.48Q366.07-42.63 365.00-40.82L365.00-40.82L365.00-40.82Q363.94-39.01 363.30-36.16L363.30-36.16L363.30-36.16Q362.66-33.32 362.61-29.27L362.61-29.27ZM409.97-26.66L409.97-26.66L409.97-26.66Q409.97-31.24 411.41-35.02L411.41-35.02L411.41-35.02Q412.85-38.80 415.38-41.81L415.38-41.81L415.38-41.81Q417.90-44.81 421.36-47.05L421.36-47.05L421.36-47.05Q424.82-49.28 428.87-50.77L428.87-50.77L428.87-50.77Q432.91-52.26 437.33-53.01L437.33-53.01L437.33-53.01Q441.75-53.75 446.27-53.75L446.27-53.75L446.27-53.75Q452.23-53.75 457.10-52.56L457.10-52.56L457.10-52.56Q461.97-51.36 465.78-49.28L465.78-49.28L465.78-49.28Q469.58-47.21 472.38-44.44L472.38-44.44L472.38-44.44Q475.17-41.67 477.01-38.56L477.01-38.56L477.01-38.56Q478.84-35.45 479.72-32.15L479.72-32.15L479.72-32.15Q480.60-28.85 480.60-25.71L480.60-25.71L440.36-20.86L440.36-20.86Q441.54-14.96 445.05-11.71L445.05-11.71L445.05-11.71Q448.56-8.46 454.89-8.46L454.89-8.46L454.89-8.46Q458.35-8.46 461.36-9.31L461.36-9.31L461.36-9.31Q464.37-10.17 466.07-11.39L466.07-11.39L470.33-3.94L470.33-3.94Q468.36-2.93 466.04-2.02L466.04-2.02L466.04-2.02Q463.73-1.12 460.93-0.45L460.93-0.45L460.93-0.45Q458.14 0.21 454.76 0.61L454.76 0.61L454.76 0.61Q451.38 1.01 447.34 1.01L447.34 1.01L447.34 1.01Q437.65 1.01 430.62-1.25L430.62-1.25L430.62-1.25Q423.60-3.51 419.00-7.32L419.00-7.32L419.00-7.32Q414.39-11.12 412.18-16.13L412.18-16.13L412.18-16.13Q409.97-21.13 409.97-26.66ZM439.73-29.27L454.79-31.14L454.79-31.14Q454.79-38.05 453.06-41.19L453.06-41.19L453.06-41.19Q451.33-44.33 447.92-44.33L447.92-44.33L447.92-44.33Q446.17-44.33 444.68-43.48L444.68-43.48L444.68-43.48Q443.19-42.63 442.12-40.82L442.12-40.82L442.12-40.82Q441.06-39.01 440.42-36.16L440.42-36.16L440.42-36.16Q439.78-33.32 439.73-29.27L439.73-29.27Z" fill="url(#editing-gradient-gradient)"></path></g></g><style>text {
  font-size: 64px;
  font-family: Arial Black;
  dominant-baseline: central;
  text-anchor: middle;
}</style></svg>